<svg width="28" height="28" viewBox="0 0 28 28" fill="none" xmlns="http://www.w3.org/2000/svg">
<path d="M7.52248 10.4643C7.88922 7.16371 10.6791 4.66666 14 4.66666C17.3209 4.66666 20.1108 7.16371 20.4775 10.4643L20.7713 13.1082C20.807 13.4297 20.8249 13.5904 20.8489 13.7487C20.9892 14.6731 21.2906 15.5658 21.7392 16.3862C21.816 16.5266 21.8992 16.6653 22.0656 16.9426L22.7399 18.0666C23.4925 19.3208 23.8687 19.9478 23.6349 20.4337C23.6156 20.4737 23.5937 20.5124 23.5693 20.5495C23.273 21 22.5417 21 21.0791 21H6.92094C5.45832 21 4.72701 21 4.43071 20.5495C4.4063 20.5124 4.38439 20.4737 4.36513 20.4337C4.13129 19.9478 4.50755 19.3208 5.26006 18.0666L5.93443 16.9426C6.10083 16.6653 6.18404 16.5266 6.26083 16.3862C6.70945 15.5658 7.01077 14.6731 7.15111 13.7487C7.17514 13.5904 7.193 13.4297 7.22871 13.1082L7.52248 10.4643Z" stroke="#767676"/>
<path d="M10.6193 21.4735C10.8187 22.3418 11.2581 23.109 11.8693 23.6562C12.4806 24.2034 13.2295 24.5 14 24.5C14.7705 24.5 15.5194 24.2034 16.1307 23.6562C16.7419 23.109 17.1813 22.3418 17.3807 21.4735" stroke="#767676" stroke-linecap="round"/>
</svg>
