<svg width="60" height="60" viewBox="0 0 60 60" fill="none" xmlns="http://www.w3.org/2000/svg">
<path d="M25 20C24.337 20 23.7011 20.2634 23.2322 20.7322C22.7634 21.2011 22.5 21.837 22.5 22.5C22.5 23.163 22.7634 23.7989 23.2322 24.2678C23.7011 24.7366 24.337 25 25 25V20ZM35 25C35.663 25 36.2989 24.7366 36.7678 24.2678C37.2366 23.7989 37.5 23.163 37.5 22.5C37.5 21.837 37.2366 21.2011 36.7678 20.7322C36.2989 20.2634 35.663 20 35 20V25ZM25 30C24.337 30 23.7011 30.2634 23.2322 30.7322C22.7634 31.2011 22.5 31.837 22.5 32.5C22.5 33.163 22.7634 33.7989 23.2322 34.2678C23.7011 34.7366 24.337 35 25 35V30ZM30 35C30.663 35 31.2989 34.7366 31.7678 34.2678C32.2366 33.7989 32.5 33.163 32.5 32.5C32.5 31.837 32.2366 31.2011 31.7678 30.7322C31.2989 30.2634 30.663 30 30 30V35ZM15 20V22.5C15.663 22.5 16.2989 22.2366 16.7678 21.7678C17.2366 21.2989 17.5 20.663 17.5 20H15ZM20 52.5H17.5C17.5 53.163 17.7634 53.7989 18.2322 54.2678C18.7011 54.7366 19.337 55 20 55V52.5ZM20 52.475V49.975C19.337 49.975 18.7011 50.2384 18.2322 50.7072C17.7634 51.1761 17.5 51.812 17.5 52.475H20ZM25 22.5V25H35V20H25V22.5ZM25 32.5V35H30V30H25V32.5ZM12.5 10V12.5H15V7.5H12.5V10ZM15 10H12.5V20H17.5V10H15ZM15 20V17.5H8.125V22.5H15V20ZM7.5 19.375H10V15H5V19.375H7.5ZM15 10V12.5H40V7.5H15V10ZM45 15H42.5V42.5H47.5V15H45ZM15 10H12.5V47.525H17.5V10H15ZM20 52.525V55.025H25V50.025H20V52.525ZM50 43.125H47.5V47.5H52.5V43.125H50ZM45 52.5V50H20V55H45V52.5ZM25 47.475H27.5V43.125H22.5V47.475H25ZM25.625 42.5V45H49.375V40H25.625V42.5ZM20 52.5H22.5V52.475H17.5V52.5H20ZM25 43.125H27.5C27.5 43.6223 27.3025 44.0992 26.9508 44.4508C26.5992 44.8025 26.1223 45 25.625 45V40C23.9 40 22.5 41.4 22.5 43.125H25ZM50 47.5H47.5C47.5 48.163 47.2366 48.7989 46.7678 49.2678C46.2989 49.7366 45.663 50 45 50V55C46.9891 55 48.8968 54.2098 50.3033 52.8033C51.7098 51.3968 52.5 49.4891 52.5 47.5H50ZM50 43.125H52.5C52.5 41.4 51.1 40 49.375 40V45C48.8777 45 48.4008 44.8025 48.0492 44.4508C47.6975 44.0992 47.5 43.6223 47.5 43.125H50ZM15 47.525H12.5C12.5 49.5141 13.2902 51.4218 14.6967 52.8283C16.1032 54.2348 18.0109 55.025 20 55.025V50.025C19.337 50.025 18.7011 49.7616 18.2322 49.2928C17.7634 48.8239 17.5 48.188 17.5 47.525H15ZM40 10V12.5C40.663 12.5 41.2989 12.7634 41.7678 13.2322C42.2366 13.7011 42.5 14.337 42.5 15H47.5C47.5 13.0109 46.7098 11.1032 45.3033 9.6967C43.8968 8.29018 41.9891 7.5 40 7.5V10ZM25 47.475H22.5C22.5 48.138 22.2366 48.7739 21.7678 49.2428C21.2989 49.7116 20.663 49.975 20 49.975V54.975C21.9891 54.975 23.8968 54.1848 25.3033 52.7783C26.7098 51.3718 27.5 49.4641 27.5 47.475H25ZM8.125 20V17.5C8.62228 17.5 9.09919 17.6975 9.45083 18.0492C9.80246 18.4008 10 18.8777 10 19.375H5C5 21.1 6.4 22.5 8.125 22.5V20ZM12.5 10V7.5C10.5109 7.5 8.60322 8.29018 7.1967 9.6967C5.79018 11.1032 5 13.0109 5 15H10C10 14.337 10.2634 13.7011 10.7322 13.2322C11.2011 12.7634 11.837 12.5 12.5 12.5V10Z" fill="#082567"/>
</svg>
