<svg width="56" height="44" viewBox="0 0 56 44" fill="none" xmlns="http://www.w3.org/2000/svg">
<path d="M21.4999 5.75C21.4999 5.41848 21.6316 5.10054 21.866 4.86612C22.1004 4.6317 22.4184 4.5 22.7499 4.5C23.0814 4.5 23.3993 4.6317 23.6338 4.86612C23.8682 5.10054 23.9999 5.41848 23.9999 5.75V12.036C24.4769 12.081 24.9779 12.169 25.4999 12.31V11H31.9999V14.5C32.506 14.492 33.0094 14.4248 33.4999 14.3V5.75C33.4999 5.02065 33.2101 4.32118 32.6944 3.80546C32.1787 3.28973 31.4792 3 30.7499 3C30.0205 3 29.3211 3.28973 28.8053 3.80546C28.2896 4.32118 27.9999 5.02065 27.9999 5.75V6.25C27.9999 6.44891 28.0789 6.63968 28.2195 6.78033C28.3602 6.92098 28.551 7 28.7499 7C28.9488 7 29.1396 6.92098 29.2802 6.78033C29.4209 6.63968 29.4999 6.44891 29.4999 6.25V5.75C29.4999 5.41848 29.6316 5.10054 29.866 4.86612C30.1004 4.6317 30.4184 4.5 30.7499 4.5C31.0814 4.5 31.3993 4.6317 31.6338 4.86612C31.8682 5.10054 31.9999 5.41848 31.9999 5.75V9.5H25.4999V5.75C25.4999 5.02065 25.2101 4.32118 24.6944 3.80546C24.1787 3.28973 23.4792 3 22.7499 3C22.0205 3 21.3211 3.28973 20.8053 3.80546C20.2896 4.32118 19.9999 5.02065 19.9999 5.75V6.25C19.9999 6.44891 20.0789 6.63968 20.2195 6.78033C20.3602 6.92098 20.551 7 20.7499 7C20.9488 7 21.1396 6.92098 21.2802 6.78033C21.4209 6.63968 21.4999 6.44891 21.4999 6.25V5.75ZM20.2799 15.526C20.139 15.6633 19.9499 15.7398 19.7531 15.739C19.5564 15.7382 19.3679 15.6601 19.2282 15.5216C19.0885 15.3831 19.0088 15.1952 19.0063 14.9985C19.0038 14.8018 19.0787 14.612 19.2149 14.47H19.2159V14.469L19.2189 14.467L19.2229 14.462L19.2349 14.451C19.2856 14.4002 19.339 14.3521 19.3949 14.307C19.5386 14.1884 19.6888 14.0779 19.8449 13.976C20.3665 13.6389 20.9373 13.3849 21.5369 13.223C23.0329 12.817 25.1399 12.847 27.7369 14.331C30.0429 15.648 32.0699 15.641 33.5139 15.323C34.1074 15.1932 34.683 14.9917 35.2279 14.723C35.4276 14.6229 35.6216 14.5117 35.8089 14.39L35.8099 14.389L35.8119 14.388C35.9733 14.2749 36.1727 14.2299 36.367 14.2627C36.5613 14.2955 36.7349 14.4035 36.8502 14.5632C36.9656 14.723 37.0134 14.9217 36.9834 15.1165C36.9534 15.3113 36.848 15.4864 36.6899 15.604H36.6889L36.6869 15.606L36.6819 15.609L36.6679 15.619C36.6023 15.6657 36.535 15.7097 36.4659 15.751C36.2809 15.8648 36.0907 15.9699 35.8959 16.066C35.241 16.3894 34.5493 16.6318 33.8359 16.788C32.0839 17.174 29.6679 17.161 26.9929 15.633C24.7239 14.337 23.0229 14.373 21.9289 14.67C21.481 14.789 21.0548 14.978 20.6659 15.23C20.5339 15.3151 20.4089 15.4104 20.2919 15.515L20.2799 15.526ZM19.2239 19.531C19.365 19.6699 19.5554 19.7473 19.7534 19.7463C19.9514 19.7454 20.141 19.6662 20.2809 19.526L20.2919 19.516L20.3589 19.456C20.4239 19.402 20.5269 19.322 20.6659 19.23C20.9459 19.047 21.3699 18.822 21.9289 18.67C23.0239 18.374 24.7239 18.337 26.9929 19.633C29.6679 21.161 32.0829 21.174 33.8369 20.788C34.5503 20.6318 35.242 20.3894 35.8969 20.066C36.147 19.9419 36.3894 19.803 36.6229 19.65L36.6679 19.62L36.6819 19.61L36.6869 19.606L36.6889 19.605L36.6899 19.604C36.848 19.4864 36.9534 19.3113 36.9834 19.1165C37.0134 18.9217 36.9656 18.723 36.8502 18.5632C36.7349 18.4035 36.5613 18.2955 36.367 18.2627C36.1727 18.2299 35.9733 18.2749 35.8119 18.388H35.8099L35.8089 18.39L35.7869 18.405L35.6789 18.475C35.5789 18.535 35.4279 18.623 35.2279 18.723C34.8279 18.922 34.2419 19.163 33.5139 19.323C32.0699 19.642 30.0439 19.648 27.7369 18.331C25.1399 16.847 23.0329 16.817 21.5369 17.223C20.7999 17.423 20.2319 17.722 19.8449 17.976C19.6435 18.1087 19.452 18.2557 19.2719 18.416L19.2349 18.451L19.2229 18.462L19.2189 18.467L19.2169 18.469L19.2149 18.47C19.0756 18.6118 18.9983 18.8031 19 19.0019C19.0017 19.2006 19.0822 19.3916 19.2239 19.531Z" fill="#111111"/>
<path d="M18.7199 31.2461C18.7199 31.6758 18.8645 32.0996 19.1535 32.5176C19.4426 32.9316 19.8684 33.291 20.4309 33.5957C20.9934 33.9004 21.6652 34.1016 22.4465 34.1992L21.8605 35.4062C20.9465 35.2734 20.1516 35.0078 19.4758 34.6094C18.8039 34.207 18.2883 33.7109 17.9289 33.1211C17.5734 33.7109 17.0617 34.207 16.3938 34.6094C15.7258 35.0078 14.9387 35.2734 14.0324 35.4062L13.4348 34.1992C14.2082 34.1016 14.8762 33.9004 15.4387 33.5957C16.0012 33.291 16.427 32.9316 16.716 32.5176C17.0051 32.0996 17.1496 31.6758 17.1496 31.2461V30.7305H18.7199V31.2461ZM22.7863 37.4336H18.6379V41.0781H17.1613V37.4336H13.0598V36.2148H22.7863V37.4336ZM26.1074 30.9883C26.5254 30.9883 26.916 31.0605 27.2793 31.2051C27.6426 31.3496 27.9531 31.5547 28.2109 31.8203H30.6309V30.4141H32.1191V36.6602H30.6309V35.3828H28.1992C27.9414 35.6445 27.6289 35.8477 27.2617 35.9922C26.8984 36.1328 26.5059 36.2031 26.084 36.2031C25.5566 36.2031 25.0781 36.0898 24.6484 35.8633C24.2188 35.6367 23.8809 35.3262 23.6348 34.9316C23.3887 34.5332 23.2676 34.0898 23.2715 33.6016C23.2676 33.1016 23.3887 32.6543 23.6348 32.2598C23.8809 31.8613 24.2207 31.5508 24.6543 31.3281C25.0879 31.1016 25.5723 30.9883 26.1074 30.9883ZM26.1074 32.2656C25.8301 32.2656 25.582 32.3184 25.3633 32.4238C25.1484 32.5293 24.9805 32.6836 24.8594 32.8867C24.7422 33.0898 24.6855 33.3281 24.6895 33.6016C24.6855 33.8711 24.7441 34.1074 24.8652 34.3105C24.9863 34.5137 25.1543 34.6699 25.3691 34.7793C25.584 34.8887 25.8301 34.9414 26.1074 34.9375C26.377 34.9414 26.6172 34.8887 26.8281 34.7793C27.0391 34.6699 27.2031 34.5137 27.3203 34.3105C27.4414 34.1074 27.502 33.8711 27.502 33.6016C27.502 33.3281 27.4414 33.0898 27.3203 32.8867C27.2031 32.6836 27.0391 32.5293 26.8281 32.4238C26.6172 32.3184 26.377 32.2656 26.1074 32.2656ZM28.4746 36.8828C29.2246 36.8828 29.875 36.9668 30.4258 37.1348C30.9805 37.2988 31.4062 37.5391 31.7031 37.8555C32 38.168 32.1504 38.543 32.1543 38.9805C32.1504 39.418 32 39.793 31.7031 40.1055C31.4062 40.4219 30.9805 40.6621 30.4258 40.8262C29.875 40.9941 29.2246 41.0781 28.4746 41.0781C27.7246 41.0781 27.0742 40.9941 26.5234 40.8262C25.9727 40.6621 25.5488 40.4219 25.252 40.1055C24.9551 39.793 24.8066 39.418 24.8066 38.9805C24.8066 38.543 24.9551 38.168 25.252 37.8555C25.5488 37.5391 25.9727 37.2988 26.5234 37.1348C27.0742 36.9668 27.7246 36.8828 28.4746 36.8828ZM28.4746 38.0195C27.7598 38.0195 27.2129 38.0996 26.834 38.2598C26.459 38.4199 26.2715 38.6602 26.2715 38.9805C26.2715 39.2891 26.459 39.5234 26.834 39.6836C27.2129 39.8398 27.7598 39.918 28.4746 39.918C29.1973 39.918 29.7461 39.8398 30.1211 39.6836C30.5 39.5234 30.6895 39.2891 30.6895 38.9805C30.6895 38.6602 30.502 38.4199 30.127 38.2598C29.752 38.0996 29.2012 38.0195 28.4746 38.0195ZM28.8555 33.0039C28.8984 33.1992 28.9199 33.3984 28.9199 33.6016C28.9199 33.7969 28.8984 33.9922 28.8555 34.1875H30.6309V33.0039H28.8555ZM39.2605 32.3242H37.1395C37.1434 32.7539 37.2332 33.1621 37.409 33.5488C37.5887 33.9316 37.8621 34.2734 38.2293 34.5742C38.5965 34.875 39.0535 35.1055 39.6004 35.2656L38.8855 36.4375C38.3113 36.2617 37.8172 36.0039 37.4031 35.6641C36.9891 35.3242 36.6609 34.9199 36.4188 34.4512C36.1766 35.002 35.8348 35.4805 35.3934 35.8867C34.9559 36.2891 34.4246 36.5938 33.7996 36.8008L33.0379 35.6172C33.6043 35.4375 34.0809 35.1777 34.4676 34.8379C34.8543 34.498 35.1414 34.1113 35.3289 33.6777C35.5203 33.2441 35.6199 32.793 35.6277 32.3242H33.448V31.1289H39.2605V32.3242ZM41.6629 32.8867H43.1043V34.1055H41.6629V36.7422H40.1629V30.4141H41.6629V32.8867ZM38.1707 36.9531C38.9051 36.9492 39.5418 37.0293 40.0809 37.1934C40.6238 37.3535 41.0398 37.5879 41.3289 37.8965C41.6219 38.2051 41.7684 38.5742 41.7684 39.0039C41.7684 39.4336 41.6219 39.8027 41.3289 40.1113C41.0398 40.4238 40.6238 40.6621 40.0809 40.8262C39.5418 40.9941 38.9051 41.0781 38.1707 41.0781C37.4207 41.0781 36.7703 40.9941 36.2195 40.8262C35.6727 40.6621 35.2508 40.4238 34.9539 40.1113C34.6609 39.8027 34.5145 39.4336 34.5145 39.0039C34.5145 38.5742 34.6609 38.2051 34.9539 37.8965C35.2508 37.5879 35.6727 37.3535 36.2195 37.1934C36.7703 37.0293 37.4207 36.9492 38.1707 36.9531ZM38.1707 38.1133C37.4598 38.1133 36.9207 38.1875 36.5535 38.3359C36.1902 38.4844 36.0105 38.707 36.0145 39.0039C36.0105 39.3047 36.1922 39.5332 36.5594 39.6895C36.9266 39.8418 37.4637 39.918 38.1707 39.918C38.866 39.918 39.3934 39.8418 39.7527 39.6895C40.1121 39.5371 40.2918 39.3086 40.2918 39.0039C40.2918 38.707 40.1121 38.4844 39.7527 38.3359C39.3934 38.1875 38.866 38.1133 38.1707 38.1133Z" fill="#111111"/>
</svg>
